<svg xmlns="http://www.w3.org/2000/svg" width="250.803" height="45.503" viewBox="0 0 250.803 45.503">
  <g id="Group_27294" data-name="Group 27294" transform="translate(-0.4 -4.24)">
    <g id="Group_13" data-name="Group 13" transform="translate(52.819 14.24)">
      <g id="Group_8" data-name="Group 8" transform="translate(0 0.001)">
        <path id="Path_10" data-name="Path 10" d="M1856.134,2670.736V2687.8h-3.992v-2.307a5.507,5.507,0,0,1-2.289,2.015,6.691,6.691,0,0,1-2.985.732,8.677,8.677,0,0,1-3.552-.715,8.308,8.308,0,0,1-2.765-1.959,9.107,9.107,0,0,1-1.794-2.856,9.515,9.515,0,0,1,0-6.866,9.069,9.069,0,0,1,1.795-2.875,8.308,8.308,0,0,1,2.765-1.959,8.669,8.669,0,0,1,3.552-.715,6.682,6.682,0,0,1,2.985.732,5.508,5.508,0,0,1,2.289,2.015v-2.308Zm-9.046,13.953a4.8,4.8,0,0,0,2.069-.439,4.947,4.947,0,0,0,1.593-1.172,5.285,5.285,0,0,0,1.025-1.721,6.132,6.132,0,0,0,0-4.175,5.291,5.291,0,0,0-1.025-1.721,4.957,4.957,0,0,0-1.593-1.172,4.8,4.8,0,0,0-2.069-.439,4.682,4.682,0,0,0-2.051.439,4.961,4.961,0,0,0-2.582,2.893,6.437,6.437,0,0,0,0,4.175,4.962,4.962,0,0,0,2.582,2.893,4.678,4.678,0,0,0,2.05.439Z" transform="translate(-1838.116 -2662.264)" fill="#68bb59"/>
        <path id="Path_11" data-name="Path 11" d="M2309.921,2687.807v-9.558a6.038,6.038,0,0,0-.751-3.241,2.659,2.659,0,0,0-2.435-1.19,3.77,3.77,0,0,0-1.41.256,2.76,2.76,0,0,0-1.135.879,4.507,4.507,0,0,0-.769,1.63,9.861,9.861,0,0,0-.275,2.545v8.679h-3.992v-9.595a6.178,6.178,0,0,0-.715-3.223,2.586,2.586,0,0,0-2.4-1.172,3.919,3.919,0,0,0-1.428.256,2.744,2.744,0,0,0-1.154.879,4.728,4.728,0,0,0-.787,1.63,9.264,9.264,0,0,0-.293,2.545v8.679h-3.992v-17.065h3.992v2.38a4.859,4.859,0,0,1,1.813-2,5.271,5.271,0,0,1,2.947-.823,6.185,6.185,0,0,1,3.589.879,5.079,5.079,0,0,1,1.794,2.161,5.307,5.307,0,0,1,2.015-2.161,5.9,5.9,0,0,1,3.222-.879,6.965,6.965,0,0,1,3.113.6,5,5,0,0,1,1.885,1.557,5.527,5.527,0,0,1,.915,2.143,12.213,12.213,0,0,1,.239,2.4v10.8Z" transform="translate(-2269.798 -2662.269)" fill="#68bb59"/>
        <path id="Path_12" data-name="Path 12" d="M2929.764,2491.43a11.207,11.207,0,0,1,.59-3.673q.077-.223.163-.439a8.92,8.92,0,0,0-1.484-2.165,8.334,8.334,0,0,0-2.765-1.952,8.7,8.7,0,0,0-3.552-.711,6.7,6.7,0,0,0-2.985.73,5.5,5.5,0,0,0-2.289,2.007V2474.39h-3.992v25.54h3.992v-2.3a5.49,5.49,0,0,0,2.289,2.007,6.709,6.709,0,0,0,2.985.73,8.7,8.7,0,0,0,3.551-.711,8.318,8.318,0,0,0,2.765-1.952,8.989,8.989,0,0,0,1.469-2.122q-.1-.258-.188-.526A11.764,11.764,0,0,1,2929.764,2491.43Zm-2.635,2.08a4.948,4.948,0,0,1-2.582,2.882,4.688,4.688,0,0,1-2.051.438,4.863,4.863,0,0,1-3.7-1.6,5.025,5.025,0,0,1-1.007-1.715,6.393,6.393,0,0,1,0-4.16,5.027,5.027,0,0,1,1.007-1.715,4.862,4.862,0,0,1,3.7-1.605,4.7,4.7,0,0,1,2.051.438,4.949,4.949,0,0,1,2.582,2.882,6.4,6.4,0,0,1,0,4.159Z" transform="translate(-2869.028 -2474.39)" fill="#68bb59"/>
        <path id="Path_13" data-name="Path 13" d="M3320.379,2680.485a7.651,7.651,0,0,0,.33,1.721,3.888,3.888,0,0,0,.787,1.41,3.635,3.635,0,0,0,1.373.952,5.462,5.462,0,0,0,2.088.348,3.8,3.8,0,0,0,2.49-.659,4.009,4.009,0,0,0,1.135-1.575h4.029a5.982,5.982,0,0,1-.787,2.106,6.439,6.439,0,0,1-1.593,1.777,7.991,7.991,0,0,1-2.307,1.227,9.019,9.019,0,0,1-2.966.458,9.323,9.323,0,0,1-3.754-.7,7.445,7.445,0,0,1-2.655-1.9,7.957,7.957,0,0,1-1.593-2.857,11.387,11.387,0,0,1-.531-3.516,10.846,10.846,0,0,1,.568-3.552,8.423,8.423,0,0,1,1.63-2.856,7.279,7.279,0,0,1,2.637-1.885,9,9,0,0,1,3.589-.678,8.176,8.176,0,0,1,3.095.585,7.829,7.829,0,0,1,2.527,1.63,7.464,7.464,0,0,1,2.289,5.475q0,.439-.019,1.044a10.583,10.583,0,0,1-.165,1.447Zm4.358-7.178a4.628,4.628,0,0,0-3.113,1.062,3.909,3.909,0,0,0-1.245,3.15h8.5a3.91,3.91,0,0,0-4.138-4.212Z" transform="translate(-3255.405 -2662.27)" fill="#68bb59"/>
        <path id="Path_14" data-name="Path 14" d="M3737.583,2679.518a7.607,7.607,0,0,0-.787-.146,7.07,7.07,0,0,0-.788-.037,5.04,5.04,0,0,0-3.918,1.483,6.837,6.837,0,0,0-1.355,4.706v7.361h-3.992v-17.066h3.992v2.748a4.328,4.328,0,0,1,.823-1.117,6.234,6.234,0,0,1,1.245-.952,6.671,6.671,0,0,1,1.538-.659,5.985,5.985,0,0,1,1.666-.238,4.166,4.166,0,0,1,1.575.256Z" transform="translate(-3648.697 -2667.346)" fill="#68bb59"/>
      </g>
      <path id="Subtraction_2" data-name="Subtraction 2" d="M11.694,3.762a8.293,8.293,0,0,0-.825-.181,5.4,5.4,0,0,0-.9-.072q-.466,0-.932.036a1.723,1.723,0,0,0-.843.289,1.875,1.875,0,0,0-.628.8,3.705,3.705,0,0,0-.251,1.52V8.683h4.377v3.294H7.318V25.545H3.408V11.975H0V8.681H3.408v-2.1a8.518,8.518,0,0,1,.664-3.745A4.933,4.933,0,0,1,5.686.885,4.555,4.555,0,0,1,7.677.125,14.941,14.941,0,0,1,9.434,0a6.463,6.463,0,0,1,1.345.127,3.36,3.36,0,0,1,.915.307ZM28.008,8.683V25.544H24.1V23.192a5.148,5.148,0,0,1-2.188,2.08,7.16,7.16,0,0,1-3.264.707,6.853,6.853,0,0,1-3.067-.615A5.017,5.017,0,0,1,13.624,23.7a5.994,5.994,0,0,1-.843-2.1,15.016,15.016,0,0,1-.233-2.895V8.683h3.91V17.4a10.821,10.821,0,0,0,.179,2.026,4.736,4.736,0,0,0,.592,1.61,3.06,3.06,0,0,0,1.112,1.067,3.475,3.475,0,0,0,1.74.4,3.4,3.4,0,0,0,3.031-1.465A6.367,6.367,0,0,0,24.1,17.4V8.683Zm1.073,0h3.91v2.352a5.148,5.148,0,0,1,2.188-2.08,7.16,7.16,0,0,1,3.264-.706,6.855,6.855,0,0,1,3.067.615,5.017,5.017,0,0,1,1.955,1.664,5.994,5.994,0,0,1,.843,2.1,15.016,15.016,0,0,1,.233,2.895V25.544h-3.91v-8.72a10.822,10.822,0,0,0-.179-2.026,4.736,4.736,0,0,0-.592-1.61,3.06,3.06,0,0,0-1.112-1.067,3.475,3.475,0,0,0-1.74-.4,3.4,3.4,0,0,0-3.031,1.465,6.367,6.367,0,0,0-.987,3.636v8.72h-3.91ZM59.206,23.265a5.412,5.412,0,0,1-2.242,1.99,6.5,6.5,0,0,1-2.924.723,8.429,8.429,0,0,1-3.479-.706,8.144,8.144,0,0,1-2.709-1.936,9.027,9.027,0,0,1-1.758-2.822,9.479,9.479,0,0,1,0-6.784,8.975,8.975,0,0,1,1.758-2.84,8.144,8.144,0,0,1,2.709-1.936,8.429,8.429,0,0,1,3.479-.706,6.5,6.5,0,0,1,2.923.724,5.412,5.412,0,0,1,2.242,1.991V.215h3.91V25.543h-3.91Zm-4.95-.8a4.666,4.666,0,0,0,2.027-.433,4.855,4.855,0,0,0,1.56-1.158,5.234,5.234,0,0,0,1-1.7,6.108,6.108,0,0,0,0-4.125,5.234,5.234,0,0,0-1-1.7,4.855,4.855,0,0,0-1.56-1.158,4.666,4.666,0,0,0-2.027-.433,4.55,4.55,0,0,0-2.009.433A4.913,4.913,0,0,0,50.7,13.351a4.992,4.992,0,0,0-.987,1.7,6.411,6.411,0,0,0,0,4.125,4.992,4.992,0,0,0,.987,1.7,4.913,4.913,0,0,0,1.543,1.158A4.55,4.55,0,0,0,54.256,22.469ZM84.93,25.544V16.1a6.005,6.005,0,0,0-.735-3.2,2.6,2.6,0,0,0-2.385-1.177,3.658,3.658,0,0,0-1.381.253,2.709,2.709,0,0,0-1.112.868,4.461,4.461,0,0,0-.753,1.61,9.84,9.84,0,0,0-.269,2.515v8.575h-3.91V16.064a6.153,6.153,0,0,0-.7-3.184,2.527,2.527,0,0,0-2.349-1.159,3.8,3.8,0,0,0-1.4.253,2.681,2.681,0,0,0-1.13.868,4.679,4.679,0,0,0-.771,1.61,9.252,9.252,0,0,0-.287,2.515v8.575h-3.91V8.683h3.91v2.352a4.782,4.782,0,0,1,1.776-1.972,5.134,5.134,0,0,1,2.888-.814,6.013,6.013,0,0,1,3.515.868,5,5,0,0,1,1.758,2.135,5.227,5.227,0,0,1,1.973-2.135,5.748,5.748,0,0,1,3.157-.868,6.771,6.771,0,0,1,3.049.6,4.907,4.907,0,0,1,1.847,1.538,5.474,5.474,0,0,1,.9,2.117c.019.095.036.19.065.361a10.151,10.151,0,0,0-.935,4.6,11.211,11.211,0,0,0,1.1,4.7v3.382ZM96.464,11.216a4.51,4.51,0,0,0-3.049,1.049,3.88,3.88,0,0,0-1.22,3.112h8.322a4.077,4.077,0,0,0-1.13-3.057,4.009,4.009,0,0,0-2.923-1.1Zm-4.269,7.093a7.647,7.647,0,0,0,.323,1.7,3.862,3.862,0,0,0,.771,1.393,3.568,3.568,0,0,0,1.345.941,5.332,5.332,0,0,0,2.045.344,3.7,3.7,0,0,0,2.439-.651,3.963,3.963,0,0,0,1.112-1.556h3.946a5.937,5.937,0,0,1-.771,2.08,6.352,6.352,0,0,1-1.56,1.755,7.809,7.809,0,0,1-2.26,1.212,8.754,8.754,0,0,1-2.905.452A9.062,9.062,0,0,1,93,25.291a7.29,7.29,0,0,1-2.6-1.881,7.9,7.9,0,0,1-1.56-2.822,11.35,11.35,0,0,1-.52-3.474,10.791,10.791,0,0,1,.556-3.51,8.35,8.35,0,0,1,1.6-2.822,7.139,7.139,0,0,1,2.583-1.863,8.753,8.753,0,0,1,3.515-.669,7.936,7.936,0,0,1,3.031.579,7.657,7.657,0,0,1,2.475,1.61,7.423,7.423,0,0,1,1.65,2.405,7.514,7.514,0,0,1,.592,3q0,.433-.018,1.031a10.449,10.449,0,0,1-.161,1.43Z" transform="translate(94.062 0.002)" fill="#68bb59"/>
    </g>
    <g id="Group_19" data-name="Group 19" transform="translate(0.4 4.24)">
      <g id="Group_18" data-name="Group 18" transform="translate(0)">
        <path id="Union_6" data-name="Union 6" d="M18.05,36.041c-3.4-3.568-5.408-7.136-3.879-5.59,3.235,3.267,8.646,4.987,15.9,4.247a26.28,26.28,0,0,0,12.56-5.035C40.555,35.915,39.6,35,31.572,40.891A5.577,5.577,0,0,1,28.2,42C24.689,42,20.887,39.021,18.05,36.041ZM11.056,1.11c4.234-3.1,9.738.873,13.523,4.85,3.4,3.568,5.408,7.136,3.879,5.59-3.236-3.266-8.645-4.986-15.9-4.246A26.273,26.273,0,0,0,0,12.339C2.074,6.087,3.024,7,11.056,1.11Z" transform="translate(1.282 1.751)" fill="#3a9a29"/>
        <g id="Group_14" data-name="Group 14" transform="translate(3.195)">
          <path id="Exclusion_1" data-name="Exclusion 1" d="M22.479,20.146c9.6,0,15.574-4.028,19.811-9.9h0a24.041,24.041,0,0,1-13.816,2.286c-8.19-.964-11.817-4.653-13.125-5.988C8.9-.9,8.061,4.642,10.042,6.064c4.179,4.332,6.748,6.646,6.23,7.132-1.336,1.249-6.612-1.5-7.972-2.589C3.689,6.9,2.5,2.031,1.574.61s-2-.175-1.4,1.844C2.649,12.106,11.384,20.146,22.479,20.146Z" transform="translate(42.29 20.146) rotate(180)" fill="#68bb59"/>
        </g>
        <g id="Group_17" data-name="Group 17" transform="translate(0 25.357)">
          <path id="Exclusion_3" data-name="Exclusion 3" d="M22.325,20.146c9.534,0,15.467-4.028,19.675-9.9h0a23.74,23.74,0,0,1-13.721,2.286c-8.133-.964-11.735-4.653-13.034-5.988C8.836-.9,8.005,4.643,9.973,6.065c4.15,4.332,6.7,6.646,6.187,7.132-1.327,1.25-6.567-1.5-7.918-2.588C3.664,6.9,2.479,2.031,1.564.61S-.424.436.174,2.454C2.631,12.107,11.306,20.146,22.325,20.146Z" transform="translate(-0.001 -0.001)" fill="#68bb59"/>
        </g>
      </g>
      <path id="Path_27" data-name="Path 27" d="M922.044,2648.272A4.235,4.235,0,0,1,919.58,2644a4.19,4.19,0,0,1,3.4-3.551,4.143,4.143,0,0,1,4.3,2.353c1.056,2.389-.333,5.56.987,7.684a4.39,4.39,0,0,0,2.785,1.739c.208.033.224.053.224-.152h0c.023-2.062,0,0,.043-5.512a16.283,16.283,0,0,0-.462-4.862,6.925,6.925,0,0,0-2.548-3.226,8.119,8.119,0,0,0-6.414-1.3,7.716,7.716,0,0,0-5.135,4.036,7.915,7.915,0,0,0,4.718,10.738,7.548,7.548,0,0,0,6.22-.853,6.206,6.206,0,0,1-.806-4.031A4.361,4.361,0,0,1,922.044,2648.272Z" transform="translate(-901.001 -2621.887)" fill="#ee5f00"/>
    </g>
  </g>
</svg>
